<svg height="464pt" viewBox="0 0 464 464" width="464pt" xmlns="http://www.w3.org/2000/svg"><path d="m64 112h336c35.347656 0 64 28.652344 64 64v224c0 35.347656-28.652344 64-64 64h-336c-35.347656 0-64-28.652344-64-64v-224c0-35.347656 28.652344-64 64-64zm0 0" fill="#5a6470"/><path d="m48 168h304v240h-304zm0 0" fill="#cfdfe8"/><path d="m432 208c0 13.253906-10.746094 24-24 24s-24-10.746094-24-24 10.746094-24 24-24 24 10.746094 24 24zm0 0" fill="#dd3e46"/><g fill="#f4bc58"><path d="m392 272h-8c-4.417969 0-8-3.582031-8-8s3.582031-8 8-8h8c4.417969 0 8 3.582031 8 8s-3.582031 8-8 8zm0 0"/><path d="m432 272h-8c-4.417969 0-8-3.582031-8-8s3.582031-8 8-8h8c4.417969 0 8 3.582031 8 8s-3.582031 8-8 8zm0 0"/><path d="m432 304h-48c-4.417969 0-8-3.582031-8-8s3.582031-8 8-8h48c4.417969 0 8 3.582031 8 8s-3.582031 8-8 8zm0 0"/><path d="m432 336h-48c-4.417969 0-8-3.582031-8-8s3.582031-8 8-8h48c4.417969 0 8 3.582031 8 8s-3.582031 8-8 8zm0 0"/><path d="m432 368h-48c-4.417969 0-8-3.582031-8-8s3.582031-8 8-8h48c4.417969 0 8 3.582031 8 8s-3.582031 8-8 8zm0 0"/><path d="m432 400h-48c-4.417969 0-8-3.582031-8-8s3.582031-8 8-8h48c4.417969 0 8 3.582031 8 8s-3.582031 8-8 8zm0 0"/></g><path d="m48 288 32-8 8 16h24l8 16-8 24 32-8 16 24 24-32 32 48h16v40h-184zm0 0" fill="#55b56a"/><path d="m264 176 8 16h-16v16h32l-8 24 16 16 32-16v24h24v-88h-88zm0 0" fill="#55b56a"/><path d="m256 240h-16c-.363281.046875-.71875.121094-1.070312.214844-2.867188-11.386719-11.757813-20.28125-23.144532-23.152344.09375-.347656.167969-.703125.214844-1.0625v-16c0-4.417969-3.582031-8-8-8s-8 3.582031-8 8v16c.046875.359375.121094.714844.214844 1.0625-11.386719 2.871094-20.28125 11.765625-23.152344 23.152344-.347656-.09375-.703125-.167969-1.0625-.214844h-16c-4.417969 0-8 3.582031-8 8s3.582031 8 8 8h16c.359375-.046875.714844-.121094 1.0625-.214844 2.871094 11.386719 11.765625 20.28125 23.152344 23.152344-.09375.347656-.167969.703125-.214844 1.0625v16c0 4.417969 3.582031 8 8 8s8-3.582031 8-8v-16c-.046875-.359375-.121094-.714844-.214844-1.0625 11.386719-2.871094 20.277344-11.765625 23.144532-23.152344.351562.09375.707031.167969 1.070312.214844h16c4.417969 0 8-3.582031 8-8s-3.582031-8-8-8zm0 0" fill="#dd3e46"/><path d="m100 0c11.046875 0 20 8.953125 20 20v92h-40v-92c0-11.046875 8.953125-20 20-20zm0 0" fill="#195c85"/><path d="m80 80h40v32h-40zm0 0" fill="#7fcac9"/><path d="m304 80h80v32h-80zm0 0" fill="#dd3e46"/></svg>